# xmcd
#
# Track frame offsets: 
#        150
#        12850
#        23473
#        36539
#        56782
#        72052
#        87430
#        100165
#        115044
#        126247
#        144225
#        157971
#        171033
#        188235
#        202608
#        217030
#        229464
#        243839
#        256030
#
# Disc length: 3559 seconds
#
# Revision: 0
# Processed by: cddbd v1.5.1PL0 Copyright (c) Steve Scherf et al.
# Submitted via: ExactAudioCopy v0.95b1
#
DISCID=f80de513
DTITLE=Johnny Cash - The Legendary CD 2
DYEAR=1900
DGENRE=
TTITLE0=Ballad Of A Teenage Queen (With Rosanne Cash and The Everly Brot
TTITLE0=hers)
TTITLE1=Hey Porter
TTITLE2=Wanted Man
TTITLE3=Let Him Roll
TTITLE4=A Backstage Pass
TTITLE5=The Night Hank Jennings Came To Town (With Waylon Jennings)
TTITLE6=Family Bible
TTITLE7=Cat's In The Cradle
TTITLE8=Don't Go Near The Water
TTITLE9=Hidden Shame
TTITLE10=That's One You Owe Me
TTITLE11=I Love You Love You
TTITLE12=Farmer's Almanac
TTITLE13=Monteagle Mountain
TTITLE14=The Mystery Of Life
TTITLE15=Sixteen Tons
TTITLE16=I'd Rather Have You
TTITLE17=The Big Light
TTITLE18=Supper Time
EXTD=
EXTT0=
EXTT1=
EXTT2=
EXTT3=
EXTT4=
EXTT5=
EXTT6=
EXTT7=
EXTT8=
EXTT9=
EXTT10=
EXTT11=
EXTT12=
EXTT13=
EXTT14=
EXTT15=
EXTT16=
EXTT17=
EXTT18=
PLAYORDER=
